<svg xmlns="http://www.w3.org/2000/svg" xmlns:xlink="http://www.w3.org/1999/xlink" id="processonSvg1000" viewBox="59.74545149369669 57.599998474121094 919.4545454545455 1418.4000348177822" width="919.4545454545455" height="1418.4000348177822"><defs id="ProcessOnDefs1001"><marker id="ProcessOnMarker1076" markerUnits="userSpaceOnUse" orient="auto" markerWidth="16.23606797749979" markerHeight="10.550836550532098" viewBox="-1.0 -1.3763819204711736 16.23606797749979 10.550836550532098" refX="-1.0" refY="3.8990363547948754"><path id="ProcessOnPath1077" d="M12.0 3.8990363547948754L0.0 7.798072709589751V0.0Z" stroke="#323232" stroke-width="2.0" fill="#323232" transform="matrix(1.0,0.0,0.0,1.0,0.0,0.0)"/></marker><marker id="ProcessOnMarker1086" markerUnits="userSpaceOnUse" orient="auto" markerWidth="16.23606797749979" markerHeight="10.550836550532098" viewBox="-1.0 -1.3763819204711736 16.23606797749979 10.550836550532098" refX="-1.0" refY="3.8990363547948754"><path id="ProcessOnPath1087" d="M12.0 3.8990363547948754L0.0 7.798072709589751V0.0Z" stroke="#323232" stroke-width="2.0" fill="#323232" transform="matrix(1.0,0.0,0.0,1.0,0.0,0.0)"/></marker><marker id="ProcessOnMarker1090" markerUnits="userSpaceOnUse" orient="auto" markerWidth="16.23606797749979" markerHeight="10.550836550532098" viewBox="-1.0 -1.3763819204711736 16.23606797749979 10.550836550532098" refX="-1.0" refY="3.8990363547948754"><path id="ProcessOnPath1091" d="M12.0 3.8990363547948754L0.0 7.798072709589751V0.0Z" stroke="#323232" stroke-width="2.0" fill="#323232" transform="matrix(1.0,0.0,0.0,1.0,0.0,0.0)"/></marker><marker id="ProcessOnMarker1094" markerUnits="userSpaceOnUse" orient="auto" markerWidth="16.23606797749979" markerHeight="10.550836550532098" viewBox="-1.0 -1.3763819204711736 16.23606797749979 10.550836550532098" refX="-1.0" refY="3.8990363547948754"><path id="ProcessOnPath1095" d="M12.0 3.8990363547948754L0.0 7.798072709589751V0.0Z" stroke="#323232" stroke-width="2.0" fill="#323232" transform="matrix(1.0,0.0,0.0,1.0,0.0,0.0)"/></marker><marker id="ProcessOnMarker1098" markerUnits="userSpaceOnUse" orient="auto" markerWidth="16.23606797749979" markerHeight="10.550836550532098" viewBox="-1.0 -1.3763819204711736 16.23606797749979 10.550836550532098" refX="-1.0" refY="3.8990363547948754"><path id="ProcessOnPath1099" d="M12.0 3.8990363547948754L0.0 7.798072709589751V0.0Z" stroke="#323232" stroke-width="2.0" fill="#323232" transform="matrix(1.0,0.0,0.0,1.0,0.0,0.0)"/></marker></defs><g id="ProcessOnG1002"><path id="ProcessOnPath1003" d="M59.74545149369669 57.599998474121094H979.1999969482422V1476.0000332919033H59.74545149369669V57.599998474121094Z" fill="none"/><g id="ProcessOnG1004"><g id="ProcessOnG1005" transform="matrix(1.0,0.0,0.0,1.0,183.59999084472656,77.5999984741211)" opacity="1.0"><path id="ProcessOnPath1006" d="M0.0 4.0Q0.0 0.0 4.0 0.0L96.0 0.0Q100.0 0.0 100.0 4.0L100.0 66.0Q100.0 70.0 96.0 70.0L4.0 70.0Q0.0 70.0 0.0 66.0Z" stroke="#323232" stroke-width="2.0" stroke-dasharray="none" opacity="1.0" fill="#ffffff"/><g id="ProcessOnG1007" transform="matrix(1.0,0.0,0.0,1.0,10.0,26.875)"><text id="ProcessOnText1008" fill="#000000" font-size="13" x="39.0" y="13.325" font-family="微软雅黑" font-weight="normal" font-style="normal" text-decoration="none" family="微软雅黑" text-anchor="middle" size="13">web用户</text></g></g><g id="ProcessOnG1009" transform="matrix(1.0,0.0,0.0,1.0,379.59999084472656,77.5999984741211)" opacity="1.0"><path id="ProcessOnPath1010" d="M0.0 4.0Q0.0 0.0 4.0 0.0L96.0 0.0Q100.0 0.0 100.0 4.0L100.0 66.0Q100.0 70.0 96.0 70.0L4.0 70.0Q0.0 70.0 0.0 66.0Z" stroke="#323232" stroke-width="2.0" stroke-dasharray="none" opacity="1.0" fill="#ffffff"/><g id="ProcessOnG1011" transform="matrix(1.0,0.0,0.0,1.0,10.0,26.875)"><text id="ProcessOnText1012" fill="#000000" font-size="13" x="39.0" y="13.325" font-family="微软雅黑" font-weight="normal" font-style="normal" text-decoration="none" family="微软雅黑" text-anchor="middle" size="13">应用程序员</text></g></g><g id="ProcessOnG1013" transform="matrix(1.0,0.0,0.0,1.0,587.5999908447266,77.5999984741211)" opacity="1.0"><path id="ProcessOnPath1014" d="M0.0 4.0Q0.0 0.0 4.0 0.0L96.0 0.0Q100.0 0.0 100.0 4.0L100.0 66.0Q100.0 70.0 96.0 70.0L4.0 70.0Q0.0 70.0 0.0 66.0Z" stroke="#323232" stroke-width="2.0" stroke-dasharray="none" opacity="1.0" fill="#ffffff"/><g id="ProcessOnG1015" transform="matrix(1.0,0.0,0.0,1.0,10.0,26.875)"><text id="ProcessOnText1016" fill="#000000" font-size="13" x="39.0" y="13.325" font-family="微软雅黑" font-weight="normal" font-style="normal" text-decoration="none" family="微软雅黑" text-anchor="middle" size="13">分析员</text></g></g><g id="ProcessOnG1017" transform="matrix(1.0,0.0,0.0,1.0,800.5999908447266,77.5999984741211)" opacity="1.0"><path id="ProcessOnPath1018" d="M0.0 4.0Q0.0 0.0 4.0 0.0L96.0 0.0Q100.0 0.0 100.0 4.0L100.0 66.0Q100.0 70.0 96.0 70.0L4.0 70.0Q0.0 70.0 0.0 66.0Z" stroke="#323232" stroke-width="2.0" stroke-dasharray="none" opacity="1.0" fill="#ffffff"/><g id="ProcessOnG1019" transform="matrix(1.0,0.0,0.0,1.0,10.0,26.875)"><text id="ProcessOnText1020" fill="#000000" font-size="13" x="39.0" y="13.325" font-family="微软雅黑" font-weight="normal" font-style="normal" text-decoration="none" family="微软雅黑" text-anchor="middle" size="13">数据库管理员</text></g></g><g id="ProcessOnG1021" transform="matrix(1.0,0.0,0.0,1.0,173.59999084472656,244.5999984741211)" opacity="1.0"><path id="ProcessOnPath1022" d="M0.0 40.0L60.0 0.0L120.0 40.0L60.0 80.0Z" stroke="#323232" stroke-width="2.0" stroke-dasharray="none" opacity="1.0" fill="#ffffff"/><g id="ProcessOnG1023" transform="matrix(1.0,0.0,0.0,1.0,10.0,32.275)"><text id="ProcessOnText1024" fill="#000000" font-size="13" x="49.0" y="13.325" font-family="微软雅黑" font-weight="normal" font-style="normal" text-decoration="none" family="微软雅黑" text-anchor="middle" size="13">应用界面</text></g></g><g id="ProcessOnG1025" transform="matrix(1.0,0.0,0.0,1.0,369.59999084472656,244.5999984741211)" opacity="1.0"><path id="ProcessOnPath1026" d="M0.0 40.0L60.0 0.0L120.0 40.0L60.0 80.0Z" stroke="#323232" stroke-width="2.0" stroke-dasharray="none" opacity="1.0" fill="#ffffff"/><g id="ProcessOnG1027" transform="matrix(1.0,0.0,0.0,1.0,10.0,32.275)"><text id="ProcessOnText1028" fill="#000000" font-size="13" x="49.0" y="13.325" font-family="微软雅黑" font-weight="normal" font-style="normal" text-decoration="none" family="微软雅黑" text-anchor="middle" size="13">应用程序</text></g></g><g id="ProcessOnG1029" transform="matrix(1.0,0.0,0.0,1.0,577.5999908447266,244.5999984741211)" opacity="1.0"><path id="ProcessOnPath1030" d="M0.0 40.0L60.0 0.0L120.0 40.0L60.0 80.0Z" stroke="#323232" stroke-width="2.0" stroke-dasharray="none" opacity="1.0" fill="#ffffff"/><g id="ProcessOnG1031" transform="matrix(1.0,0.0,0.0,1.0,10.0,32.275)"><text id="ProcessOnText1032" fill="#000000" font-size="13" x="49.0" y="13.325" font-family="微软雅黑" font-weight="normal" font-style="normal" text-decoration="none" family="微软雅黑" text-anchor="middle" size="13">查询工具</text></g></g><g id="ProcessOnG1033" transform="matrix(1.0,0.0,0.0,1.0,790.5999908447266,244.5999984741211)" opacity="1.0"><path id="ProcessOnPath1034" d="M0.0 40.0L60.0 0.0L120.0 40.0L60.0 80.0Z" stroke="#323232" stroke-width="2.0" stroke-dasharray="none" opacity="1.0" fill="#ffffff"/><g id="ProcessOnG1035" transform="matrix(1.0,0.0,0.0,1.0,10.0,32.275)"><text id="ProcessOnText1036" fill="#000000" font-size="13" x="49.0" y="13.325" font-family="微软雅黑" font-weight="normal" font-style="normal" text-decoration="none" family="微软雅黑" text-anchor="middle" size="13">管理工具</text></g></g><g id="ProcessOnG1037"><path id="ProcessOnPath1038" d="M233.59999084472656 147.5999984741211L233.59999084472656 196.0999984741211L233.59999084472656 196.0999984741211L233.59999084472656 244.5999984741211" stroke="#323232" stroke-width="2.0" stroke-dasharray="none" fill="none"/></g><g id="ProcessOnG1039"><path id="ProcessOnPath1040" d="M429.59999084472656 147.5999984741211L429.59999084472656 196.0999984741211L429.59999084472656 196.0999984741211L429.59999084472656 244.5999984741211" stroke="#323232" stroke-width="2.0" stroke-dasharray="none" fill="none"/></g><g id="ProcessOnG1041"><path id="ProcessOnPath1042" d="M637.5999908447266 147.5999984741211L637.5999908447266 196.0999984741211L637.5999908447266 196.0999984741211L637.5999908447266 244.5999984741211" stroke="#323232" stroke-width="2.0" stroke-dasharray="none" fill="none"/></g><g id="ProcessOnG1043"><path id="ProcessOnPath1044" d="M850.5999908447266 147.5999984741211L850.5999908447266 196.0999984741211L850.5999908447266 196.0999984741211L850.5999908447266 244.5999984741211" stroke="#323232" stroke-width="2.0" stroke-dasharray="none" fill="none"/></g><g id="ProcessOnG1045" transform="matrix(1.0,0.0,0.0,1.0,178.99998474121094,488.2000045776367)" opacity="1.0"><path id="ProcessOnPath1046" d="M0.0 4.0Q0.0 0.0 4.0 0.0L105.20001220703125 0.0Q109.20001220703125 0.0 109.20001220703125 4.0L109.20001220703125 40.0Q109.20001220703125 44.0 105.20001220703125 44.0L4.0 44.0Q0.0 44.0 0.0 40.0Z" stroke="#323232" stroke-width="2.0" stroke-dasharray="none" opacity="1.0" fill="#ffffff"/><g id="ProcessOnG1047" transform="matrix(1.0,0.0,0.0,1.0,10.0,5.75)"><text id="ProcessOnText1048" fill="#000000" font-size="13" x="43.600006103515625" y="13.325" font-family="微软雅黑" font-weight="normal" font-style="normal" text-decoration="none" family="微软雅黑" text-anchor="middle" size="13">应用程序目标</text><text id="ProcessOnText1049" fill="#000000" font-size="13" x="43.600006103515625" y="29.575" font-family="微软雅黑" font-weight="normal" font-style="normal" text-decoration="none" family="微软雅黑" text-anchor="middle" size="13">码</text></g></g><g id="ProcessOnG1050" transform="matrix(1.0,0.0,0.0,1.0,384.1999969482422,409.2000045776367)" opacity="1.0"><path id="ProcessOnPath1051" d="M0.0 4.0Q0.0 0.0 4.0 0.0L86.79998779296875 0.0Q90.79998779296875 0.0 90.79998779296875 4.0L90.79998779296875 51.99999237060547Q90.79998779296875 55.99999237060547 86.79998779296875 55.99999237060547L4.0 55.99999237060547Q0.0 55.99999237060547 0.0 51.99999237060547Z" stroke="#323232" stroke-width="2.0" stroke-dasharray="none" opacity="1.0" fill="#ffffff"/><g id="ProcessOnG1052" transform="matrix(1.0,0.0,0.0,1.0,10.0,11.749996185302734)"><text id="ProcessOnText1053" fill="#000000" font-size="13" x="34.399993896484375" y="13.325" font-family="微软雅黑" font-weight="normal" font-style="normal" text-decoration="none" family="微软雅黑" text-anchor="middle" size="13">编译器和连</text><text id="ProcessOnText1054" fill="#000000" font-size="13" x="34.399993896484375" y="29.575" font-family="微软雅黑" font-weight="normal" font-style="normal" text-decoration="none" family="微软雅黑" text-anchor="middle" size="13">接器</text></g></g><g id="ProcessOnG1055" transform="matrix(1.0,0.0,0.0,1.0,587.5999908447266,419.1999969482422)" opacity="1.0"><path id="ProcessOnPath1056" d="M0.0 4.0Q0.0 0.0 4.0 0.0L96.0 0.0Q100.0 0.0 100.0 4.0L100.0 32.00000762939453Q100.0 36.00000762939453 96.0 36.00000762939453L4.0 36.00000762939453Q0.0 36.00000762939453 0.0 32.00000762939453Z" stroke="#323232" stroke-width="2.0" stroke-dasharray="none" opacity="1.0" fill="#ffffff"/><g id="ProcessOnG1057" transform="matrix(1.0,0.0,0.0,1.0,10.0,9.875003814697266)"><text id="ProcessOnText1058" fill="#000000" font-size="13" x="39.0" y="13.325" font-family="微软雅黑" font-weight="normal" font-style="normal" text-decoration="none" family="微软雅黑" text-anchor="middle" size="13">DML查询</text></g></g><g id="ProcessOnG1059" transform="matrix(1.0,0.0,0.0,1.0,800.5999908447266,415.2000045776367)" opacity="1.0"><path id="ProcessOnPath1060" d="M0.0 4.0Q0.0 0.0 4.0 0.0L96.0 0.0Q100.0 0.0 100.0 4.0L100.0 30.0Q100.0 34.0 96.0 34.0L4.0 34.0Q0.0 34.0 0.0 30.0Z" stroke="#323232" stroke-width="2.0" stroke-dasharray="none" opacity="1.0" fill="#ffffff"/><g id="ProcessOnG1061" transform="matrix(1.0,0.0,0.0,1.0,10.0,8.875)"><text id="ProcessOnText1062" fill="#000000" font-size="13" x="39.0" y="13.325" font-family="微软雅黑" font-weight="normal" font-style="normal" text-decoration="none" family="微软雅黑" text-anchor="middle" size="13">DDL解释器</text></g></g><g id="ProcessOnG1063" transform="matrix(1.0,0.0,0.0,1.0,293.47271867231876,612.6545500321822)" opacity="1.0"><path id="ProcessOnPath1064" d="M0.0 4.0Q0.0 0.0 4.0 0.0L107.0 0.0Q111.0 0.0 111.0 4.0L111.0 27.199995517730713Q111.0 31.199995517730713 107.0 31.199995517730713L4.0 31.199995517730713Q0.0 31.199995517730713 0.0 27.199995517730713Z" stroke="#323232" stroke-width="2.0" stroke-dasharray="none" opacity="1.0" fill="#ffffff"/><g id="ProcessOnG1065" transform="matrix(1.0,0.0,0.0,1.0,10.0,7.4749977588653564)"><text id="ProcessOnText1066" fill="#000000" font-size="13" x="44.5" y="13.325" font-family="微软雅黑" font-weight="normal" font-style="normal" text-decoration="none" family="微软雅黑" text-anchor="middle" size="13">查询执行引擎</text></g></g><g id="ProcessOnG1067" transform="matrix(1.0,0.0,0.0,1.0,548.5090817538177,559.7818166559392)" opacity="1.0"><path id="ProcessOnPath1068" d="M0.0 4.0Q0.0 0.0 4.0 0.0L116.0 0.0Q120.0 0.0 120.0 4.0L120.0 38.60000228881836Q120.0 42.60000228881836 116.0 42.60000228881836L4.0 42.60000228881836Q0.0 42.60000228881836 0.0 38.60000228881836Z" stroke="#323232" stroke-width="2.0" stroke-dasharray="none" opacity="1.0" fill="#ffffff"/><g id="ProcessOnG1069" transform="matrix(1.0,0.0,0.0,1.0,10.0,5.05000114440918)"><text id="ProcessOnText1070" fill="#000000" font-size="13" x="49.0" y="13.325" font-family="微软雅黑" font-weight="normal" font-style="normal" text-decoration="none" family="微软雅黑" text-anchor="middle" size="13">DML编译器和组</text><text id="ProcessOnText1071" fill="#000000" font-size="13" x="49.0" y="29.575" font-family="微软雅黑" font-weight="normal" font-style="normal" text-decoration="none" family="微软雅黑" text-anchor="middle" size="13">织器</text></g></g><g id="ProcessOnG1072"><path id="ProcessOnPath1073" d="M233.59999084472656 488.2000045776367L233.59999084472656 406.4000015258789L233.59999084472656 406.4000015258789L233.59999084472656 324.5999984741211" stroke="#323232" stroke-width="2.0" stroke-dasharray="none" fill="none"/></g><g id="ProcessOnG1074"><path id="ProcessOnPath1075" d="M474.99998474121094 437.20000076293945L531.2999877929688 437.20000076293945L531.2999877929688 437.20000076293945L572.3639228672267 437.20000076293945" stroke="#323232" stroke-width="2.0" stroke-dasharray="none" fill="none" marker-end="url(#ProcessOnMarker1076)"/></g><g id="ProcessOnG1078"><path id="ProcessOnPath1079" d="M637.5999908447266 324.5999984741211L637.5999908447266 371.89999771118164L637.5999908447266 371.89999771118164L637.5999908447266 419.1999969482422" stroke="#323232" stroke-width="2.0" stroke-dasharray="none" fill="none"/></g><g id="ProcessOnG1080"><path id="ProcessOnPath1081" d="M429.59999084472656 324.5999984741211L429.59999084472656 366.9000015258789L429.59999084472656 366.9000015258789L429.59999084472656 409.2000045776367" stroke="#323232" stroke-width="2.0" stroke-dasharray="none" fill="none"/></g><g id="ProcessOnG1082"><path id="ProcessOnPath1083" d="M850.5999908447266 324.5999984741211L850.5999908447266 369.9000015258789L850.5999908447266 369.9000015258789L850.5999908447266 415.2000045776367" stroke="#323232" stroke-width="2.0" stroke-dasharray="none" fill="none"/></g><g id="ProcessOnG1084"><path id="ProcessOnPath1085" d="M288.1999969482422 510.2000045776367L590.158324780427 510.2000045776367L590.158324780427 470.25908073185366" stroke="#323232" stroke-width="2.0" stroke-dasharray="none" fill="none" marker-end="url(#ProcessOnMarker1086)"/></g><g id="ProcessOnG1088"><path id="ProcessOnPath1089" d="M567.4545288085939 601.9999972256746L567.4545288085939 628.2545477910476L419.70878664981853 628.2545477910476" stroke="#323232" stroke-width="2.0" stroke-dasharray="none" fill="none" marker-end="url(#ProcessOnMarker1090)"/></g><g id="ProcessOnG1092"><path id="ProcessOnPath1093" d="M233.59999084472656 532.2000045776367L233.59999084472656 628.2545477910476L278.236650694819 628.2545477910476" stroke="#323232" stroke-width="2.0" stroke-dasharray="none" fill="none" marker-end="url(#ProcessOnMarker1094)"/></g><g id="ProcessOnG1096"><path id="ProcessOnPath1097" d="M384.1999969482422 437.20000076293945L257.6239935302734 437.20000076293945L257.6239935302734 473.0896537632229" stroke="#323232" stroke-width="2.0" stroke-dasharray="none" fill="none" marker-end="url(#ProcessOnMarker1098)"/></g><g id="ProcessOnG1100"><path id="ProcessOnPath1101" d="M959.1999969482422 365.5L522.1999969482422 365.5L522.1999969482422 365.5L85.19999694824219 365.5" stroke="#323232" stroke-width="2.0" stroke-dasharray="2.0 3.0" fill="none"/></g><g id="ProcessOnG1102"><path id="ProcessOnPath1103" d="M86.19999694824219 364.5L86.19999694824219 521.75L86.19999694824219 521.75L86.19999694824219 679.0" stroke="#323232" stroke-width="2.0" stroke-dasharray="2.0 3.0" fill="none"/></g><g id="ProcessOnG1104"><path id="ProcessOnPath1105" d="M959.1999969482422 365.5L959.1999969482422 522.75L959.1999969482422 522.75L959.1999969482422 680.0" stroke="#323232" stroke-width="2.0" stroke-dasharray="2.0 3.0" fill="none"/></g><g id="ProcessOnG1106"><path id="ProcessOnPath1107" d="M959.1999969482422 680.5L522.1999969482422 680.5L522.1999969482422 680.5L85.19999694824219 680.5" stroke="#323232" stroke-width="2.0" stroke-dasharray="2.0 3.0" fill="none"/></g><g id="ProcessOnG1108" transform="matrix(1.0,0.0,0.0,1.0,796.5999908447266,638.2000045776367)" opacity="1.0"><path id="ProcessOnPath1109" d="M0.0 0.0L160.0 0.0L160.0 40.0L0.0 40.0Z" stroke="none" stroke-width="0.0" stroke-dasharray="none" opacity="1.0" fill="none"/><g id="ProcessOnG1110" transform="matrix(1.0,0.0,0.0,1.0,0.0,11.875)"><text id="ProcessOnText1111" fill="#000000" font-size="13" x="79.0" y="13.325" font-family="微软雅黑" font-weight="normal" font-style="normal" text-decoration="none" family="微软雅黑" text-anchor="middle" size="13">查询处理器</text></g></g><g id="ProcessOnG1112" transform="matrix(1.0,0.0,0.0,1.0,173.64807494612765,764.8378712305384)" opacity="1.0"><path id="ProcessOnPath1113" d="M0.0 4.0Q0.0 0.0 4.0 0.0L94.23472595214844 0.0Q98.23472595214844 0.0 98.23472595214844 4.0L98.23472595214844 34.16364469853295Q98.23472595214844 38.16364469853295 94.23472595214844 38.16364469853295L4.0 38.16364469853295Q0.0 38.16364469853295 0.0 34.16364469853295Z" stroke="#323232" stroke-width="2.0" stroke-dasharray="none" opacity="1.0" fill="#ffffff"/><g id="ProcessOnG1114" transform="matrix(1.0,0.0,0.0,1.0,10.0,2.8318223492664742)"><text id="ProcessOnText1115" fill="#000000" font-size="13" x="38.11736297607422" y="13.325" font-family="微软雅黑" font-weight="normal" font-style="normal" text-decoration="none" family="微软雅黑" text-anchor="middle" size="13">缓冲区管理</text><text id="ProcessOnText1116" fill="#000000" font-size="13" x="38.11736297607422" y="29.575" font-family="微软雅黑" font-weight="normal" font-style="normal" text-decoration="none" family="微软雅黑" text-anchor="middle" size="13">器</text></g></g><g id="ProcessOnG1117" transform="matrix(1.0,0.0,0.0,1.0,355.81818181818176,767.9257750622438)" opacity="1.0"><path id="ProcessOnPath1118" d="M0.0 4.0Q0.0 0.0 4.0 0.0L92.54546009410507 0.0Q96.54546009410507 0.0 96.54546009410507 4.0L96.54546009410507 27.800008334896688Q96.54546009410507 31.800008334896688 92.54546009410507 31.800008334896688L4.0 31.800008334896688Q0.0 31.800008334896688 0.0 27.800008334896688Z" stroke="#323232" stroke-width="2.0" stroke-dasharray="none" opacity="1.0" fill="#ffffff"/><g id="ProcessOnG1119" transform="matrix(1.0,0.0,0.0,1.0,10.0,7.775004167448344)"><text id="ProcessOnText1120" fill="#000000" font-size="13" x="37.272730047052534" y="13.325" font-family="微软雅黑" font-weight="normal" font-style="normal" text-decoration="none" family="微软雅黑" text-anchor="middle" size="13">文件管理器</text></g></g><g id="ProcessOnG1121" transform="matrix(1.0,0.0,0.0,1.0,617.2727272727271,765.7511766795237)" opacity="1.0"><path id="ProcessOnPath1122" d="M0.0 4.0Q0.0 0.0 4.0 0.0L99.27273282137787 0.0Q103.27273282137787 0.0 103.27273282137787 4.0L103.27273282137787 42.598057678819146Q103.27273282137787 46.598057678819146 99.27273282137787 46.598057678819146L4.0 46.598057678819146Q0.0 46.598057678819146 0.0 42.598057678819146Z" stroke="#323232" stroke-width="2.0" stroke-dasharray="none" opacity="1.0" fill="#ffffff"/><g id="ProcessOnG1123" transform="matrix(1.0,0.0,0.0,1.0,10.0,7.049028839409573)"><text id="ProcessOnText1124" fill="#000000" font-size="13" x="40.636366410688936" y="13.325" font-family="微软雅黑" font-weight="normal" font-style="normal" text-decoration="none" family="微软雅黑" text-anchor="middle" size="13">授权和完整管</text><text id="ProcessOnText1125" fill="#000000" font-size="13" x="40.636366410688936" y="29.575" font-family="微软雅黑" font-weight="normal" font-style="normal" text-decoration="none" family="微软雅黑" text-anchor="middle" size="13">理器</text></g></g><g id="ProcessOnG1126" transform="matrix(1.0,0.0,0.0,1.0,796.5999908447266,769.9328857299637)" opacity="1.0"><path id="ProcessOnPath1127" d="M0.0 0.0L94.85456015846944 0.0L94.85456015846944 32.8648263118107L0.0 32.8648263118107Z" stroke="#323232" stroke-width="2.0" stroke-dasharray="none" opacity="1.0" fill="#ffffff"/><g id="ProcessOnG1128" transform="matrix(1.0,0.0,0.0,1.0,10.0,8.307413155905351)"><text id="ProcessOnText1129" fill="#000000" font-size="13" x="36.42728007923472" y="13.325" font-family="微软雅黑" font-weight="normal" font-style="normal" text-decoration="none" family="微软雅黑" text-anchor="middle" size="13">事务管理器</text></g></g><g id="ProcessOnG1130"><path id="ProcessOnPath1131" d="M608.5090817538177 559.7818166559392L608.5090817538177 507.345457944003L608.7272782759233 507.345457944003L608.7272782759233 454.90909923206675" stroke="#323232" stroke-width="2.0" stroke-dasharray="none" fill="none"/></g><g id="ProcessOnG1132"><path id="ProcessOnPath1133" d="M222.76543792220187 764.8378712305384L348.97271867231876 643.8545455499129" stroke="#323232" stroke-width="2.0" stroke-dasharray="none" fill="none"/></g><g id="ProcessOnG1134"><path id="ProcessOnPath1135" d="M637.5999908447266 419.1999969482422L850.5999908447266 324.5999984741211" stroke="#323232" stroke-width="2.0" stroke-dasharray="none" fill="none"/></g><g id="ProcessOnG1136"><path id="ProcessOnPath1137" d="M404.0909118652343 767.9257750622438L348.97271867231876 643.8545455499129" stroke="#323232" stroke-width="2.0" stroke-dasharray="none" fill="none"/></g><g id="ProcessOnG1138"><path id="ProcessOnPath1139" d="M668.9090936834161 765.7511766795237L348.97271867231876 643.8545455499129" stroke="#323232" stroke-width="2.0" stroke-dasharray="none" fill="none"/></g><g id="ProcessOnG1140"><path id="ProcessOnPath1141" d="M844.0272709239613 769.9328857299637L348.97271867231876 643.8545455499129" stroke="#323232" stroke-width="2.0" stroke-dasharray="none" fill="none"/></g><g id="ProcessOnG1142"><path id="ProcessOnPath1143" d="M955.5636333118788 730.9545454545453L518.5636333118788 730.9545454545453L518.5636333118788 730.9545454545453L81.5636333118786 730.9545454545453" stroke="#323232" stroke-width="2.0" stroke-dasharray="2.0 3.0" fill="none"/></g><g id="ProcessOnG1144"><path id="ProcessOnPath1145" d="M953.7454514936966 913.6818181818179L516.7454514936966 913.6818181818179L516.7454514936966 913.6818181818179L79.74545149369669 913.6818181818179" stroke="#323232" stroke-width="2.0" stroke-dasharray="2.0 3.0" fill="none"/></g><g id="ProcessOnG1146"><path id="ProcessOnPath1147" d="M79.83636058460586 729.8161018561585L79.83636058460586 821.362594995462L79.83636058460586 821.362594995462L79.83636058460586 912.9090881347655" stroke="#323232" stroke-width="2.0" stroke-dasharray="2.0 3.0" fill="none"/></g><g id="ProcessOnG1148"><path id="ProcessOnPath1149" d="M955.2909060391511 732.5433745834314L955.2909060391511 824.0898677227349L955.2909060391511 824.0898677227349L955.2909060391511 915.6363608620384" stroke="#323232" stroke-width="2.0" stroke-dasharray="2.0 3.0" fill="none"/></g><g id="ProcessOnG1150" transform="matrix(1.0,0.0,0.0,1.0,790.5999908447266,869.4545399058948)" opacity="1.0"><path id="ProcessOnPath1151" d="M0.0 0.0L160.0 0.0L160.0 40.0L0.0 40.0Z" stroke="none" stroke-width="0.0" stroke-dasharray="none" opacity="1.0" fill="none"/><g id="ProcessOnG1152" transform="matrix(1.0,0.0,0.0,1.0,0.0,11.875)"><text id="ProcessOnText1153" fill="#000000" font-size="13" x="79.0" y="13.325" font-family="微软雅黑" font-weight="normal" font-style="normal" text-decoration="none" family="微软雅黑" text-anchor="middle" size="13">存储管理器</text></g></g><g id="ProcessOnG1154" transform="matrix(1.0,0.0,0.0,1.0,266.08428959663775,991.6363525390624)" opacity="1.0"><path id="ProcessOnPath1155" d="M0.0 59.40909645774144C0.0 -19.80303215258048 457.17355346679705 -19.80303215258048 457.17355346679705 59.40909645774144C457.17355346679705 138.62122506806335 0.0 138.62122506806335 0.0 59.40909645774144Z" stroke="#323232" stroke-width="2.0" stroke-dasharray="none" opacity="1.0" fill="#ffffff"/></g><g id="ProcessOnG1156"><path id="ProcessOnPath1157" d="M266.08428959663775 1051.0454489968038L266.08428959663775 1310.9090909090908" stroke="#323232" stroke-width="2.0" stroke-dasharray="none" fill="none"/></g><g id="ProcessOnG1158"><path id="ProcessOnPath1159" d="M723.257843063435 1051.0454489968038L723.257843063435 1309.090909090909" stroke="#323232" stroke-width="2.0" stroke-dasharray="none" fill="none"/></g><g id="ProcessOnG1160"><path id="ProcessOnPath1161" d="M724.1818098588423 1310.0C643.0 1397.0 317.0 1391.0 266.79338061119887 1310.0" stroke="#323232" stroke-width="2.0" stroke-dasharray="none" fill="none"/></g><g id="ProcessOnG1162" transform="matrix(1.0,0.0,0.0,1.0,298.0000027743253,1213.8181929154823)" opacity="1.0"><path id="ProcessOnPath1163" d="M0.0 4.0Q0.0 0.0 4.0 0.0L69.6363636363636 0.0Q73.6363636363636 0.0 73.6363636363636 4.0L73.6363636363636 23.272727272727252Q73.6363636363636 27.272727272727252 69.6363636363636 27.272727272727252L4.0 27.272727272727252Q0.0 27.272727272727252 0.0 23.272727272727252Z" stroke="#323232" stroke-width="2.0" stroke-dasharray="none" opacity="1.0" fill="#ffffff"/><g id="ProcessOnG1164" transform="matrix(1.0,0.0,0.0,1.0,10.0,5.511363636363626)"><text id="ProcessOnText1165" fill="#000000" font-size="13" x="25.8181818181818" y="13.325" font-family="微软雅黑" font-weight="normal" font-style="normal" text-decoration="none" family="微软雅黑" text-anchor="middle" size="13">数据</text></g></g><g id="ProcessOnG1166" transform="matrix(1.0,0.0,0.0,1.0,412.7272727272728,1167.6363858309653)" opacity="1.0"><path id="ProcessOnPath1167" d="M0.0 4.0Q0.0 0.0 4.0 0.0L61.3818095814097 0.0Q65.3818095814097 0.0 65.3818095814097 4.0L65.3818095814097 21.45454545454527Q65.3818095814097 25.45454545454527 61.3818095814097 25.45454545454527L4.0 25.45454545454527Q0.0 25.45454545454527 0.0 21.45454545454527Z" stroke="#323232" stroke-width="2.0" stroke-dasharray="none" opacity="1.0" fill="#ffffff"/><g id="ProcessOnG1168" transform="matrix(1.0,0.0,0.0,1.0,10.0,4.602272727272634)"><text id="ProcessOnText1169" fill="#000000" font-size="13" x="21.69090479070485" y="13.325" font-family="微软雅黑" font-weight="normal" font-style="normal" text-decoration="none" family="微软雅黑" text-anchor="middle" size="13">索引</text></g></g><g id="ProcessOnG1170" transform="matrix(1.0,0.0,0.0,1.0,563.4151920485094,1184.7272838245733)" opacity="1.0"><path id="ProcessOnPath1171" d="M0.0 4.0Q0.0 0.0 4.0 0.0L84.47934439162566 0.0Q88.47934439162566 0.0 88.47934439162566 4.0L88.47934439162566 28.090897993609133Q88.47934439162566 32.09089799360913 84.47934439162566 32.09089799360913L4.0 32.09089799360913Q0.0 32.09089799360913 0.0 28.090897993609133Z" stroke="#323232" stroke-width="2.0" stroke-dasharray="none" opacity="1.0" fill="#ffffff"/><g id="ProcessOnG1172" transform="matrix(1.0,0.0,0.0,1.0,10.0,7.920448996804566)"><text id="ProcessOnText1173" fill="#000000" font-size="13" x="33.23967219581283" y="13.325" font-family="微软雅黑" font-weight="normal" font-style="normal" text-decoration="none" family="微软雅黑" text-anchor="middle" size="13">数据字典</text></g></g><g id="ProcessOnG1174" transform="matrix(1.0,0.0,0.0,1.0,541.0743877316307,1245.818204012784)" opacity="1.0"><path id="ProcessOnPath1175" d="M0.0 4.0Q0.0 0.0 4.0 0.0L82.909082586115 0.0Q86.909082586115 0.0 86.909082586115 4.0L86.909082586115 23.36361416903401Q86.909082586115 27.36361416903401 82.909082586115 27.36361416903401L4.0 27.36361416903401Q0.0 27.36361416903401 0.0 23.36361416903401Z" stroke="#323232" stroke-width="2.0" stroke-dasharray="none" opacity="1.0" fill="#ffffff"/><g id="ProcessOnG1176" transform="matrix(1.0,0.0,0.0,1.0,10.0,5.556807084517004)"><text id="ProcessOnText1177" fill="#000000" font-size="13" x="32.4545412930575" y="13.325" font-family="微软雅黑" font-weight="normal" font-style="normal" text-decoration="none" family="微软雅黑" text-anchor="middle" size="13">统计字典</text></g></g><g id="ProcessOnG1178"><path id="ProcessOnPath1179" d="M222.76543792220187 803.0015159290714L334.8181845925071 1213.8181929154823" stroke="#323232" stroke-width="2.0" stroke-dasharray="none" fill="none"/></g><g id="ProcessOnG1180"><path id="ProcessOnPath1181" d="M404.09091186523426 799.7257833971405L334.8181845925071 1213.8181929154823" stroke="#323232" stroke-width="2.0" stroke-dasharray="none" fill="none"/></g><g id="ProcessOnG1182"><path id="ProcessOnPath1183" d="M445.41817751797765 1167.6363858309653L404.09091186523426 799.7257833971405" stroke="#323232" stroke-width="2.0" stroke-dasharray="none" fill="none"/></g><g id="ProcessOnG1184"><path id="ProcessOnPath1185" d="M445.41817751797765 1167.6363858309653L222.76543792220187 803.0015159290714" stroke="#323232" stroke-width="2.0" stroke-dasharray="none" fill="none"/></g><g id="ProcessOnG1186"><path id="ProcessOnPath1187" d="M608.5090817538177 602.3818189447576L607.6548642443223 1184.7272838245733" stroke="#323232" stroke-width="2.0" stroke-dasharray="none" fill="none"/></g><g id="ProcessOnG1188"><path id="ProcessOnPath1189" d="M668.9090936834161 812.3492343583429L607.6548642443223 1184.7272838245733" stroke="#323232" stroke-width="2.0" stroke-dasharray="none" fill="none"/></g><g id="ProcessOnG1190"><path id="ProcessOnPath1191" d="M541.0743877316307 1259.500011097301L511.07438773163074 1259.500011097301L511.07438773163074 965.818204012784L607.735528867107 965.818204012784L607.735528867107 935.818204012784" stroke="#323232" stroke-width="2.0" stroke-dasharray="none" fill="none"/></g><g id="ProcessOnG1192" transform="matrix(1.0,0.0,0.0,1.0,778.1818181818181,1144.7272838245733)" opacity="1.0"><path id="ProcessOnPath1193" d="M0.0 0.0L160.0 0.0L160.0 40.0L0.0 40.0Z" stroke="none" stroke-width="0.0" stroke-dasharray="none" opacity="1.0" fill="none"/><g id="ProcessOnG1194" transform="matrix(1.0,0.0,0.0,1.0,0.0,11.875)"><text id="ProcessOnText1195" fill="#000000" font-size="13" x="79.0" y="13.325" font-family="微软雅黑" font-weight="normal" font-style="normal" text-decoration="none" family="微软雅黑" text-anchor="middle" size="13">磁盘存储</text></g></g><g id="ProcessOnG1196" transform="matrix(1.0,0.0,0.0,1.0,448.18181818181813,1416.0000332919033)" opacity="1.0"><path id="ProcessOnPath1197" d="M0.0 0.0L160.0 0.0L160.0 40.0L0.0 40.0Z" stroke="none" stroke-width="0.0" stroke-dasharray="none" opacity="1.0" fill="none"/><g id="ProcessOnG1198" transform="matrix(1.0,0.0,0.0,1.0,0.0,11.875)"><text id="ProcessOnText1199" fill="#000000" font-size="13" x="79.0" y="13.325" font-family="微软雅黑" font-weight="normal" font-style="normal" text-decoration="none" family="微软雅黑" text-anchor="middle" size="13">系统体系结构</text></g></g></g></g></svg>